:SAMPLES-PER-SECOND 30
:FULLY-SPECIFIED
:DEGREES
368
root  59.3311 27.9355 -19.1457 -163.946 -48.1161 -175.015
RightUpLeg  -56.974 -7.94055 4.56952
RightLeg  68.9223 -1.37903 -3.14285
RightFoot  -21.5687 0.175096 1.29682
RightToes  -25.1583 -0.112041 -0.216947
Spine  16.7942 3.46023 5.63924
Spine1  29.3617 7.59789 2.93374
HEad  9.81159 12.1414 -3.49211
LeftShoulder1  0 -2.42657e-020 -4.95415e-022
LeftArm  -25.3187 -26.7694 -88.7165
LeftForeArm  58.4376 -11.4122 -1.99718
LeftHand  0.735108 -12.5059 -7.07529
RightShoulder  0 2.42657e-020 1.07489e-018
RightArm  -63.2861 38.3906 74.0705
RightForeArm  26.9279 15.4108 2.78223
RightHand  0.646946 22.3224 3.64915
LeftUpLeg  -29.3672 5.00669 3.33401
LeftLeg  86.51 -0.514581 -4.1371
LeftFoot  0.960731 5.2388e-005 -0.00625757
LeftToes  -30.8803 2.01279e-006 2.21547e-008
369
root  57.9764 28.2336 -20.2233 -163.647 -46.7788 -175.433
RightUpLeg  -52.6749 -6.52052 3.26215
RightLeg  67.1985 -1.69552 -3.53696
RightFoot  -23.3925 0.257367 1.62074
RightToes  -26.4458 -0.120228 -0.22652
Spine  16.5433 3.82404 5.945
Spine1  29.8291 9.26341 2.94433
HEad  8.57964 13.1837 -4.4581
LeftShoulder1  0 -2.42657e-020 -4.95415e-022
LeftArm  -27.5868 -22.7281 -88.6775
LeftForeArm  60.9447 -11.8724 -2.07598
LeftHand  0.656107 -12.6881 -6.26953
RightShoulder  0 2.42657e-020 1.07489e-018
RightArm  -60.5952 34.6485 68.1928
RightForeArm  18.4122 20.5034 3.77634
RightHand  2.04538 22.8683 10.4606
LeftUpLeg  -37.2627 4.11602 1.454
LeftLeg  91.7188 -0.243746 -7.27432
LeftFoot  -2.14781 0.0123755 0.660171
LeftToes  -32.1864 2.01279e-006 2.21547e-008
370
root  56.5343 28.8563 -21.2639 -162.297 -46.8839 -176.653
RightUpLeg  -47.5755 -6.09199 1.55008
RightLeg  63.2136 -2.42196 -4.21439
RightFoot  -23.9541 0.352652 2.03987
RightToes  -27.8246 -0.129231 -0.236566
Spine  15.5574 3.53159 5.71097
Spine1  28.5851 9.27561 3.03003
HEad  8.28655 12.9485 -4.04113
LeftShoulder1  0 -2.42657e-020 -4.95415e-022
LeftArm  -28.202 -17.7113 -88.0806
LeftForeArm  62.0589 -12.8278 -2.24932
LeftHand  0.641771 -12.9035 -6.04384
RightShoulder  0 2.42657e-020 1.07489e-018
RightArm  -57.2661 28.8103 63.7639
RightForeArm  9.48967 25.281 4.76815
RightHand  3.6644 22.6809 18.5
LeftUpLeg  -45.9218 4.03266 -0.795108
LeftLeg  91.4087 -0.14863 -3.91182
LeftFoot  -5.96047 0.0463311 0.889897
LeftToes  -29.0483 2.01279e-006 2.21547e-008
371
root  54.9747 29.7434 -22.343 -160.703 -47.6 -178.203
RightUpLeg  -41.0829 -5.85219 -0.227982
RightLeg  56.7976 -3.7694 -5.07593
RightFoot  -22.9508 0.435556 2.52293
RightToes  -29.7868 -0.142455 -0.250481
Spine  14.329 2.88502 4.94665
Spine1  26.5638 8.24205 2.84215
HEad  8.56528 12.0719 -2.45851
LeftShoulder1  0 -2.42657e-020 -4.95415e-022
LeftArm  -28.3085 -13.1116 -86.929
LeftForeArm  62.0219 -13.3828 -2.35219
LeftHand  0.705579 -13.4161 -6.36683
RightShoulder  0 2.42657e-020 1.07489e-018
RightArm  -52.7721 21.2938 61.5125
RightForeArm  -1.16028 30.511 5.94378
RightHand  5.0467 21.7261 26.2443
LeftUpLeg  -52.6552 3.79497 -3.22024
LeftLeg  84.475 0.0244298 0.1082
LeftFoot  -9.38307 0.0316811 0.386033
LeftToes  -22.4699 2.01279e-006 2.21547e-008
372
root  53.2619 30.7762 -23.5175 -159.397 -48.007 -179.706
RightUpLeg  -33.3906 -4.46234 -1.98459
RightLeg  48.6751 -6.23296 -6.23347
RightFoot  -19.6459 0.457356 3.0187
RightToes  -33.6344 -0.169732 -0.276415
Spine  13.0516 2.20031 3.83135
Spine1  24.2901 6.72447 2.48157
HEad  9.30149 11.3198 -0.583697
LeftShoulder1  0 -2.42657e-020 -4.95415e-022
LeftArm  -29.9589 -9.16991 -85.8603
LeftForeArm  62.2999 -12.9919 -2.27911
LeftHand  0.761394 -13.6147 -6.74513
RightShoulder  0 2.42657e-020 1.07489e-018
RightArm  -49.9145 12.9832 61.1741
RightForeArm  -7.92026 35.003 7.06087
RightHand  6.09579 21.6103 31.5558
LeftUpLeg  -55.7786 3.98357 -5.62585
LeftLeg  71.1194 0.372332 0.879325
LeftFoot  -10.1708 0.0091742 0.103083
LeftToes  -20.2099 2.01279e-006 2.21547e-008
373
root  51.4021 31.7701 -24.7504 -158.55 -47.8936 179.557
RightUpLeg  -26.6475 -2.66093 -3.33995
RightLeg  41.6791 -8.27341 -6.43523
RightFoot  -12.8434 0.229597 2.41741
RightToes  -40.7032 -0.224125 -0.31906
Spine  11.5648 1.5163 2.65899
Spine1  21.695 4.78491 2.26121
HEad  10.7653 11.0644 0.93481
LeftShoulder1  0 -2.42657e-020 -4.95415e-022
LeftArm  -32.8465 -5.45055 -85.2485
LeftForeArm  64.1627 -11.7256 -2.04167
LeftHand  0.675853 -13.2825 -6.17287
RightShoulder  0 2.42657e-020 1.07489e-018
RightArm  -50.4223 4.24458 62.3918
RightForeArm  -17.1961 37.8528 7.82173
RightHand  6.2708 19.4881 35.7649
LeftUpLeg  -55.721 4.71457 -7.71799
LeftLeg  53.0275 -0.513716 -0.60643
LeftFoot  -8.29711 0.0199641 0.275232
LeftToes  -23.9033 2.01279e-006 2.21547e-008
374
root  49.4185 32.549 -26.1257 -159.646 -47.2864 -179.125
RightUpLeg  -20.9422 -1.60493 -3.41309
RightLeg  36.7612 -8.4169 -5.46002
RightFoot  -4.06708 0.0157937 0.822494
RightToes  -49.4299 -0.297847 -0.361966
Spine  10.3773 1.0562 1.75812
Spine1  19.822 3.10642 2.28997
HEad  12.5379 11.994 1.59492
LeftShoulder1  0 -2.42657e-020 -4.95415e-022
LeftArm  -37.9948 -2.30712 -85.2
LeftForeArm  67.0888 -10.2896 -1.77297
LeftHand  0.559118 -13.0279 -5.2665
RightShoulder  0 2.42657e-020 1.07489e-018
RightArm  -50.7731 -4.59624 64.5206
RightForeArm  -27.0798 41.9608 9.03546
RightHand  6.65408 18.8935 38.8993
LeftUpLeg  -53.6613 7.15448 -9.26278
LeftLeg  35.0274 -1.08297 -0.664053
LeftFoot  -1.97117 0.0034376 0.199812
LeftToes  -27.3874 2.01279e-006 2.21547e-008
375
root  47.3855 32.903 -27.6198 -162.369 -46.8462 -176.295
RightUpLeg  -17.125 0.365949 -2.58054
RightLeg  36.5963 -6.93744 -4.48488
RightFoot  3.3866 0.022954 -0.398818
RightToes  -50.9472 -0.311293 -0.368258
Spine  9.56688 0.476293 1.54287
Spine1  18.6201 1.52279 2.37359
HEad  14.6917 14.8831 0.934274
LeftShoulder1  0 -2.42657e-020 -4.95415e-022
LeftArm  -41.9768 1.24366 -85.3189
LeftForeArm  66.7975 -9.86216 -1.69633
LeftHand  0.576069 -12.7609 -5.52111
RightShoulder  0 2.42657e-020 1.07489e-018
RightArm  -51.5289 -13.8517 67.443
RightForeArm  -29.4731 51.9107 12.8954
RightHand  6.84078 19.0079 39.6763
LeftUpLeg  -51.9641 10.6738 -10.4161
LeftLeg  25.076 -0.677998 -0.268643
LeftFoot  0.89504 -0.00105823 0.135473
LeftToes  -27.5517 2.01279e-006 2.21547e-008
376
root  45.2522 32.7415 -29.1211 -165.612 -45.3239 -174.586
RightUpLeg  -15.8291 5.02782 -2.76318
RightLeg  43.7988 -4.29602 -3.64018
RightFoot  8.87616 0.090093 -0.783127
RightToes  -46.4951 -0.272335 -0.348796
Spine  9.19387 -0.376542 1.09966
Spine1  18.1182 -0.178658 1.34643
HEad  17.9486 19.0824 0.165695
LeftShoulder1  0 -2.42657e-020 -4.95415e-022
LeftArm  -45.1049 4.99867 -84.7271
LeftForeArm  65.7477 -9.90569 -1.70677
LeftHand  0.757623 -13.0263 -7.00232
RightShoulder  0 2.42657e-020 1.07489e-018
RightArm  -50.6701 -21.5662 69.8126
RightForeArm  -23.9224 61.4974 18.8557
RightHand  6.44839 18.8246 37.9197
LeftUpLeg  -49.349 12.0484 -9.67813
LeftLeg  24.9182 2.24282 0.868281
LeftFoot  0.141791 -0.000130381 0.105364
LeftToes  -23.7756 2.01279e-006 2.21547e-008
377
root  42.94 32.1427 -30.61 -168.26 -43.1119 -175.132
RightUpLeg  -15.9352 8.27554 -4.76264
RightLeg  54.7015 1.05081 1.23538
RightFoot  13.2765 -0.00923801 0.456902
RightToes  -41.1619 -0.22783 -0.321591
Spine  8.94796 -1.50462 -0.0230149
Spine1  17.7641 -2.42368 -0.891437
HEad  20.3276 23.4468 -0.872405
LeftShoulder1  0 -2.42657e-020 -4.95415e-022
LeftArm  -45.6109 9.34118 -83.4344
LeftForeArm  64.3701 -10.6945 -1.85307
LeftHand  0.945579 -13.2799 -8.48371
RightShoulder  0 2.42657e-020 1.07489e-018
RightArm  -47.3359 -28.2646 70.6511
RightForeArm  -16.4139 69.358 27.8354
RightHand  6.11594 18.5696 36.5739
LeftUpLeg  -44.9628 11.4581 -8.97191
LeftLeg  29.7996 3.15405 1.54153
LeftFoot  0.325916 -0.000263246 0.0925487
LeftToes  -6.33942 2.01279e-006 2.21547e-008
378
root  40.6847 31.3331 -31.9978 -171.549 -42.3305 -175.862
RightUpLeg  -16.2179 9.72822 -6.28885
RightLeg  65.7352 4.21865 7.7719
RightFoot  9.98555 -0.107625 1.60933
RightToes  -43.22 -0.244703 -0.33258
Spine  8.84263 -3.02407 -0.982578
Spine1  17.6761 -5.49174 -2.82692
HEad  21.7409 27.4386 -2.30753
LeftShoulder1  0 -2.42657e-020 -4.95415e-022
LeftArm  -43.3987 12.8585 -82.1139
LeftForeArm  62.8567 -11.2851 -1.96419
LeftHand  0.89682 -12.8723 -8.31184
RightShoulder  0 2.42657e-020 1.07489e-018
RightArm  -41.5924 -33.7224 68.4611
RightForeArm  -6.94847 74.8839 40.6873
RightHand  6.05472 18.2105 36.9067
LeftUpLeg  -43.8975 9.04542 -8.21985
LeftLeg  43.131 5.19155 4.25228
LeftFoot  -6.735 -0.043691 -0.742516
LeftToes  8.43771 2.01279e-006 2.21547e-008
379
root  38.4429 30.7665 -33.3455 -173.672 -41.6487 -177.496
RightUpLeg  -17.9482 10.6388 -7.83347
RightLeg  73.9478 2.67492 7.19175
RightFoot  6.80495 -0.0383229 1.02202
RightToes  -43.264 -0.245069 -0.332808
Spine  9.1863 -3.77706 -2.06514
Spine1  18.4025 -6.86954 -4.9858
HEad  20.5776 28.8838 -3.65164
LeftShoulder1  0 -2.42657e-020 -4.95415e-022
LeftArm  -41.287 12.205 -80.3577
LeftForeArm  63.9459 -10.4076 -1.80197
LeftHand  0.799721 -12.3754 -7.74049
RightShoulder  0 2.42657e-020 1.07489e-018
RightArm  -39.4161 -38.5669 67.7981
RightForeArm  6.56042 78.1045 56.7912
RightHand  6.06468 17.691 37.9801
LeftUpLeg  -39.4905 8.44904 -9.41522
LeftLeg  49.6133 5.98653 6.1422
LeftFoot  -13.9957 -0.246965 -2.01179
LeftToes  9.39832 2.01279e-006 2.21547e-008
380
root  36.4597 30.4791 -34.5189 -175.039 -40.7563 -177.383
RightUpLeg  -22.8084 10.7595 -7.89188
RightLeg  78.7785 0.578614 1.83659
RightFoot  4.54882 0.00405532 0.275401
RightToes  -39.4959 -0.214469 -0.312257
Spine  9.13647 -3.90241 -2.4369
Spine1  18.251 -7.1423 -5.5974
HEad  20.6755 29.0214 -4.48984
LeftShoulder1  0 -2.42657e-020 -4.95415e-022
LeftArm  -42.1972 9.58452 -79.592
LeftForeArm  67.4525 -9.14272 -1.56497
LeftHand  0.705098 -11.5455 -7.34032
RightShoulder  0 2.42657e-020 1.07489e-018
RightArm  -40.1031 -42.4481 69.0081
RightForeArm  11.3169 78.8028 62.9218
RightHand  5.94272 17.1452 38.3836
LeftUpLeg  -35.3194 7.87315 -9.78442
LeftLeg  52.2394 6.79134 7.62049
LeftFoot  -19.4928 -0.576582 -3.35585
LeftToes  11.9997 2.01279e-006 2.21547e-008
